<?xml version="1.0" encoding="UTF-8"?><svg xmlns="http://www.w3.org/2000/svg" viewBox="0 0 500 500"><defs><style>.cls-1{opacity:.1;}.cls-2{fill:#f9c990;}.cls-3{fill:#0286cb;}.cls-4{fill:#02797d;}.cls-5{fill:#003a85;}.cls-6{fill:#f26a40;}.cls-7{fill:#e89f8b;}.cls-8{fill:#fff;}.cls-9{fill:#ffc825;}.cls-10{fill:#ff8d00;}.cls-11{fill:#fead19;}.cls-12{fill:#ff6d00;}.cls-13{fill:#67362d;}.cls-14{fill:#b8d9f1;}.cls-15{fill:#dbf0ff;}.cls-16{fill:#db603f;}.cls-17{fill:#1467b4;}.cls-18{fill:#3c8f7c;}.cls-19{fill:#457a9e;}.cls-20{fill:#4595d7;}.cls-21{fill:#9abeda;}.cls-22{fill:#608daf;}.cls-23{fill:#50bfa5;}.cls-24{fill:#565656;opacity:.2;}.cls-25{opacity:.15;}</style></defs><g id="BACKGROUND"><rect class="cls-8" width="500" height="500"/></g><g id="OBJECTS"><g><path class="cls-15" d="M76.42,102.62c71.9-31.16,144.98-3.61,194.55,56.4,49.56,60.01,153.58-41.42,208.75,18.49,37.65,40.89,20.4,146-31.22,191.53-70.17,61.89-283.55,30.48-329.71,19.95-53.18-12.13-92.05-48.95-107.85-93.63C-27.12,187.71,44.65,116.39,76.42,102.62Z"/><path class="cls-14" d="M481.16,395.47c-35.99-1.76-158.43,1.22-195.67,2.38-37.24,1.16-80.46-1.53-102.91-5.5-22.45-3.96-152.24,.34-146.35,10.99,5.89,10.66,57.83,4.77,116.72,9.05,58.9,4.28,191.35-.54,221.23,0,29.88,.54,57.28-1.07,95.78-3.21,38.5-2.14,32.06-12.7,11.2-13.72Z"/><g><path class="cls-18" d="M140.4,343.04s-43.04-15.24-37.12-37.68c0,0,2.55-4.41,9.46-.26,0,0-17.09-13.9-8.13-23.57,0,0,3.05-3.61,10.84,1.4,0,0-9.62-20.34,.78-27.24,0,0,13.23-2.48,16.27,23.65,0,0,15.17-18.54,11.16,16.72,0,0,3.71-5.72,8.36-3.21,2.57,.78,13.92,10.6-8.13,45.39l-3.49,4.81Z"/><path class="cls-8" d="M138.37,330.68c-.38,.25-.88,.14-1.13-.24-.92-1.41-1.79-2.89-2.61-4.42,0-.01-.01-.02-.02-.04-.21-.39-.41-.79-.62-1.19-7.5-1.16-17.84-8.38-23.4-12.64l-.35-.27c-.36-.26-.45-.77-.18-1.14,.26-.36,.77-.45,1.14-.18l.39,.3c8.68,6.66,16.22,10.88,21.5,12.1-2.52-5.27-4.53-11.02-6.14-16.74-.05-.1-.08-.2-.09-.32-.44-1.57-.85-3.14-1.23-4.69-5.65-3.84-12.51-9.84-12.58-9.9-.34-.3-.37-.81-.08-1.15,.28-.32,.75-.37,1.09-.12,.02,.01,.04,.03,.06,.05,.06,.06,5.73,4.99,10.95,8.74-3.53-15.46-4.27-28.87-4.28-29.09-.02-.45,.32-.83,.77-.85,.19-.01,.37,.05,.52,.15,.19,.14,.32,.36,.34,.62,.01,.25,.9,16.1,5.28,33.11,1.38-3.92,3.66-7.35,5.28-9.78,.73-1.1,1.57-2.34,1.63-2.71,0-.44,.36-.8,.8-.81,.18,0,.35,.05,.49,.15,.2,.15,.33,.38,.34,.65,.01,.72-.58,1.63-1.91,3.62-1.92,2.87-4.8,7.18-5.82,11.9,1.58,5.6,3.55,11.23,6.01,16.39,.29-5.68,2.23-11.11,5.67-15.56l.12-.16c.26-.36,.77-.45,1.14-.18,.36,.26,.45,.77,.18,1.14l-.15,.2c-2.24,2.9-5.9,9.05-5.34,17.78,.78,1.43,1.59,2.82,2.46,4.14,.25,.38,.14,.88-.24,1.13Z"/></g><g><path class="cls-23" d="M142.34,344.11s-32.6,7.42-37.73-8.78c0,0-.15-3.72,5.75-3.86,0,0-16.02-1.91-14.26-11.4,0,0,.47-3.43,7.26-3.38,0,0-13.91-8.82-10.18-17.17,0,0,7.21-6.72,19.33,8.27,0,0,2.13-17.41,13.45,5.97,0,0,.06-4.99,3.92-5.26,1.9-.53,12.76,1.11,12.74,31.27l-.27,4.34Z"/><path class="cls-8" d="M136.25,337.26c-.14,.3-.49,.43-.79,.29-1.12-.51-2.24-1.09-3.34-1.71,0,0-.02,0-.03-.01-.28-.16-.57-.33-.85-.5-5.1,2.22-14.32,1.8-19.43,1.34l-.33-.03c-.33-.02-.58-.3-.56-.63,.02-.33,.3-.58,.63-.56l.36,.03c7.98,.72,14.3,.39,18.05-.93-3.62-2.28-7.12-5.05-10.36-7.96-.07-.04-.13-.09-.18-.16-.89-.8-1.75-1.61-2.59-2.42-5-.17-11.6-1.19-11.66-1.2-.33-.05-.55-.36-.5-.68,.05-.31,.32-.52,.63-.5,.02,0,.04,0,.05,0,.06,.01,5.5,.85,10.2,1.12-8.23-8.19-13.95-16.19-14.04-16.33-.19-.27-.13-.64,.14-.83,.12-.08,.25-.12,.38-.11,.17,.01,.34,.1,.45,.25,.1,.15,6.86,9.61,16.23,18.42-.68-2.96-.61-5.98-.56-8.12,.03-.97,.05-2.06-.05-2.31-.17-.27-.09-.63,.18-.81,.11-.07,.24-.1,.36-.1,.18,.01,.35,.1,.46,.27,.29,.44,.28,1.24,.24,2.99-.07,2.53-.16,6.32,1.06,9.65,3.17,2.85,6.59,5.56,10.13,7.79-2.05-3.63-2.97-7.75-2.58-11.85v-.15c.03-.33,.32-.58,.65-.56,.33,.02,.58,.3,.56,.63l-.02,.18c-.25,2.67-.11,7.91,3.66,13.09,1.04,.58,2.09,1.12,3.14,1.6,.3,.14,.43,.49,.29,.79Z"/></g><g><path class="cls-18" d="M363.87,343.04s43.04-15.24,37.12-37.68c0,0-2.55-4.41-9.46-.26,0,0,17.09-13.9,8.13-23.57,0,0-3.05-3.61-10.84,1.4,0,0,9.62-20.34-.78-27.24,0,0-13.23-2.48-16.27,23.65,0,0-15.17-18.54-11.16,16.72,0,0-3.71-5.72-8.36-3.21-2.57,.78-13.92,10.6,8.13,45.39l3.49,4.81Z"/><path class="cls-8" d="M365.9,330.68c.38,.25,.88,.14,1.13-.24,.92-1.41,1.79-2.89,2.61-4.42,0-.01,.01-.02,.02-.04,.21-.39,.41-.79,.62-1.19,7.5-1.16,17.84-8.38,23.4-12.64l.35-.27c.36-.26,.45-.77,.18-1.14-.26-.36-.77-.45-1.14-.18l-.39,.3c-8.68,6.66-16.22,10.88-21.5,12.1,2.52-5.27,4.53-11.02,6.14-16.74,.05-.1,.08-.2,.09-.32,.44-1.57,.85-3.14,1.23-4.69,5.65-3.84,12.51-9.84,12.58-9.9,.34-.3,.37-.81,.08-1.15-.28-.32-.75-.37-1.09-.12-.02,.01-.04,.03-.06,.05-.06,.06-5.73,4.99-10.95,8.74,3.53-15.46,4.27-28.87,4.28-29.09,.02-.45-.32-.83-.77-.85-.19-.01-.37,.05-.52,.15-.19,.14-.32,.36-.34,.62-.01,.25-.9,16.1-5.28,33.11-1.38-3.92-3.66-7.35-5.28-9.78-.73-1.1-1.57-2.34-1.63-2.71,0-.44-.36-.8-.8-.81-.18,0-.35,.05-.49,.15-.2,.15-.33,.38-.34,.65-.01,.72,.58,1.63,1.91,3.62,1.92,2.87,4.8,7.18,5.82,11.9-1.58,5.6-3.55,11.23-6.01,16.39-.29-5.68-2.23-11.11-5.67-15.56l-.12-.16c-.26-.36-.77-.45-1.14-.18-.36,.26-.45,.77-.18,1.14l.15,.2c2.24,2.9,5.9,9.05,5.34,17.78-.78,1.43-1.59,2.82-2.46,4.14-.25,.38-.14,.88,.24,1.13Z"/></g><g><path class="cls-23" d="M361.93,344.11s32.6,7.42,37.73-8.78c0,0,.15-3.72-5.75-3.86,0,0,16.02-1.91,14.26-11.4,0,0-.47-3.43-7.26-3.38,0,0,13.91-8.82,10.18-17.17,0,0-7.21-6.72-19.33,8.27,0,0-2.13-17.41-13.45,5.97,0,0-.06-4.99-3.92-5.26-1.9-.53-12.76,1.11-12.74,31.27l.27,4.34Z"/><path class="cls-8" d="M368.02,337.26c.14,.3,.49,.43,.79,.29,1.12-.51,2.24-1.09,3.34-1.71,0,0,.02,0,.03-.01,.28-.16,.57-.33,.85-.5,5.1,2.22,14.32,1.8,19.43,1.34l.33-.03c.33-.02,.58-.3,.56-.63-.02-.33-.3-.58-.63-.56l-.36,.03c-7.98,.72-14.3,.39-18.05-.93,3.62-2.28,7.12-5.05,10.36-7.96,.07-.04,.13-.09,.18-.16,.89-.8,1.75-1.61,2.59-2.42,5-.17,11.6-1.19,11.66-1.2,.33-.05,.55-.36,.5-.68-.05-.31-.32-.52-.63-.5-.02,0-.04,0-.05,0-.06,.01-5.5,.85-10.2,1.12,8.23-8.19,13.95-16.19,14.04-16.33,.19-.27,.13-.64-.14-.83-.12-.08-.25-.12-.38-.11-.17,.01-.34,.1-.45,.25-.1,.15-6.86,9.61-16.23,18.42,.68-2.96,.61-5.98,.56-8.12-.03-.97-.05-2.06,.05-2.31,.17-.27,.09-.63-.18-.81-.11-.07-.24-.1-.36-.1-.18,.01-.35,.1-.46,.27-.29,.44-.28,1.24-.24,2.99,.07,2.53,.16,6.32-1.06,9.65-3.17,2.85-6.59,5.56-10.13,7.79,2.05-3.63,2.97-7.75,2.58-11.85v-.15c-.03-.33-.32-.58-.65-.56-.33,.02-.58,.3-.56,.63l.02,.18c.25,2.67,.11,7.91-3.66,13.09-1.04,.58-2.09,1.12-3.14,1.6-.3,.14-.43,.49-.29,.79Z"/></g><path class="cls-4" d="M389.64,354.25H114.71c-2.86,0-5.18-2.32-5.18-5.18h0c0-2.86,2.32-5.18,5.18-5.18H389.64c2.86,0,5.18,2.32,5.18,5.18h0c0,2.86-2.32,5.18-5.18,5.18Z"/><polygon class="cls-5" points="355.52 145.75 148.83 145.75 125.97 178.73 378.38 178.73 355.52 145.75"/><rect class="cls-9" x="130.73" y="240.41" width="242.89" height="100.41"/><rect class="cls-10" x="130.73" y="240.41" width="242.89" height="6.74"/><rect class="cls-25" x="130.73" y="247.15" width="242.89" height="2.09"/><rect class="cls-9" x="140.72" y="178.73" width="218.56" height="61.68"/><rect class="cls-10" x="139.67" y="178.73" width="225.01" height="3.92"/><path class="cls-10" d="M375.31,343.9H129.04c-1.7,0-3.08-1.38-3.08-3.08h0c0-1.7,1.38-3.08,3.08-3.08h246.26c1.7,0,3.08,1.38,3.08,3.08h0c0,1.7-1.38,3.08-3.08,3.08Z"/><polygon class="cls-5" points="286.36 258.29 217.99 258.29 204.87 280.08 299.48 280.08 286.36 258.29"/><rect class="cls-9" x="212.3" y="280.08" width="79.75" height="57.66"/><path class="cls-8" d="M149.4,266.9h7.04c2.34,0,4.23,1.9,4.23,4.23v12.8h-15.5v-12.8c0-2.34,1.9-4.23,4.23-4.23Z"/><path class="cls-8" d="M179.52,266.9h7.04c2.34,0,4.23,1.9,4.23,4.23v12.8h-15.5v-12.8c0-2.34,1.9-4.23,4.23-4.23Z"/><path class="cls-8" d="M149.4,295.05h7.04c2.34,0,4.23,1.9,4.23,4.23v12.8h-15.5v-12.8c0-2.34,1.9-4.23,4.23-4.23Z"/><path class="cls-8" d="M179.52,295.05h7.04c2.34,0,4.23,1.9,4.23,4.23v12.8h-15.5v-12.8c0-2.34,1.9-4.23,4.23-4.23Z"/><rect class="cls-10" x="144.44" y="283.93" width="17.37" height="2.25"/><rect class="cls-10" x="144.44" y="312.07" width="17.37" height="2.25"/><rect class="cls-25" x="144.44" y="283.93" width="8.4" height="2.25"/><rect class="cls-25" x="144.44" y="312.07" width="8.4" height="2.25"/><rect class="cls-10" x="174.36" y="283.93" width="17.37" height="2.25"/><rect class="cls-10" x="174.36" y="312.07" width="17.37" height="2.25"/><rect class="cls-25" x="174.36" y="283.93" width="8.69" height="2.25"/><rect class="cls-25" x="174.36" y="312.07" width="8.69" height="2.25"/><path class="cls-8" d="M157.44,187.18h7.04c2.34,0,4.23,1.9,4.23,4.23v12.8h-15.5v-12.8c0-2.34,1.9-4.23,4.23-4.23Z"/><path class="cls-8" d="M187.56,187.18h7.04c2.34,0,4.23,1.9,4.23,4.23v12.8h-15.5v-12.8c0-2.34,1.9-4.23,4.23-4.23Z"/><path class="cls-8" d="M157.44,215.32h7.04c2.34,0,4.23,1.9,4.23,4.23v12.8h-15.5v-12.8c0-2.34,1.9-4.23,4.23-4.23Z"/><path class="cls-8" d="M187.56,215.32h7.04c2.34,0,4.23,1.9,4.23,4.23v12.8h-15.5v-12.8c0-2.34,1.9-4.23,4.23-4.23Z"/><rect class="cls-10" x="152.48" y="204.21" width="17.37" height="2.25"/><rect class="cls-25" x="152.48" y="204.21" width="8.69" height="2.25"/><rect class="cls-10" x="152.48" y="232.35" width="17.37" height="2.25"/><rect class="cls-25" x="152.48" y="232.35" width="8.69" height="2.25"/><rect class="cls-10" x="182.4" y="204.21" width="17.37" height="2.25"/><rect class="cls-25" x="182.4" y="204.21" width="8.69" height="2.25"/><rect class="cls-10" x="182.4" y="232.35" width="17.37" height="2.25"/><rect class="cls-25" x="182.4" y="232.35" width="8.69" height="2.25"/><path class="cls-8" d="M231.32,187.18h7.04c2.34,0,4.23,1.9,4.23,4.23v12.8h-15.5v-12.8c0-2.34,1.9-4.23,4.23-4.23Z"/><path class="cls-8" d="M261.44,187.18h7.04c2.34,0,4.23,1.9,4.23,4.23v12.8h-15.5v-12.8c0-2.34,1.9-4.23,4.23-4.23Z"/><path class="cls-8" d="M231.32,215.32h7.04c2.34,0,4.23,1.9,4.23,4.23v12.8h-15.5v-12.8c0-2.34,1.9-4.23,4.23-4.23Z"/><path class="cls-8" d="M261.44,215.32h7.04c2.34,0,4.23,1.9,4.23,4.23v12.8h-15.5v-12.8c0-2.34,1.9-4.23,4.23-4.23Z"/><rect class="cls-10" x="226.35" y="204.21" width="17.37" height="2.25"/><rect class="cls-10" x="226.35" y="232.35" width="17.37" height="2.25"/><rect class="cls-10" x="256.28" y="204.21" width="17.37" height="2.25"/><rect class="cls-10" x="256.28" y="232.35" width="17.37" height="2.25"/><rect class="cls-25" x="256.28" y="204.21" width="8.69" height="2.25"/><rect class="cls-25" x="226.35" y="204.21" width="8.69" height="2.25"/><rect class="cls-25" x="226.35" y="232.35" width="8.69" height="2.25"/><rect class="cls-25" x="256.28" y="232.35" width="8.69" height="2.25"/><path class="cls-8" d="M305.2,187.18h7.04c2.34,0,4.23,1.9,4.23,4.23v12.8h-15.5v-12.8c0-2.34,1.9-4.23,4.23-4.23Z"/><path class="cls-8" d="M335.32,187.18h7.04c2.34,0,4.23,1.9,4.23,4.23v12.8h-15.5v-12.8c0-2.34,1.9-4.23,4.23-4.23Z"/><path class="cls-8" d="M305.2,215.32h7.04c2.34,0,4.23,1.9,4.23,4.23v12.8h-15.5v-12.8c0-2.34,1.9-4.23,4.23-4.23Z"/><path class="cls-8" d="M335.32,215.32h7.04c2.34,0,4.23,1.9,4.23,4.23v12.8h-15.5v-12.8c0-2.34,1.9-4.23,4.23-4.23Z"/><rect class="cls-10" x="300.23" y="204.21" width="17.37" height="2.25"/><rect class="cls-10" x="300.23" y="232.35" width="17.37" height="2.25"/><rect class="cls-25" x="300.23" y="204.21" width="9.42" height="2.25"/><rect class="cls-25" x="300.23" y="232.35" width="9.42" height="2.25"/><rect class="cls-10" x="330.15" y="204.21" width="17.37" height="2.25"/><rect class="cls-10" x="330.15" y="232.35" width="17.37" height="2.25"/><rect class="cls-25" x="330.15" y="204.21" width="8.69" height="2.25"/><rect class="cls-25" x="330.15" y="232.35" width="8.69" height="2.25"/><path class="cls-8" d="M317.68,266.9h7.04c2.34,0,4.23,1.9,4.23,4.23v12.8h-15.5v-12.8c0-2.34,1.9-4.23,4.23-4.23Z"/><path class="cls-8" d="M347.8,266.9h7.04c2.34,0,4.23,1.9,4.23,4.23v12.8h-15.5v-12.8c0-2.34,1.9-4.23,4.23-4.23Z"/><path class="cls-8" d="M317.68,295.05h7.04c2.34,0,4.23,1.9,4.23,4.23v12.8h-15.5v-12.8c0-2.34,1.9-4.23,4.23-4.23Z"/><path class="cls-8" d="M347.8,295.05h7.04c2.34,0,4.23,1.9,4.23,4.23v12.8h-15.5v-12.8c0-2.34,1.9-4.23,4.23-4.23Z"/><rect class="cls-10" x="312.71" y="283.93" width="17.37" height="2.25"/><rect class="cls-6" x="312.71" y="312.07" width="17.37" height="2.25"/><rect class="cls-25" x="312.71" y="283.93" width="9.07" height="2.25"/><rect class="cls-25" x="312.71" y="312.07" width="9.07" height="2.25"/><rect class="cls-10" x="342.64" y="283.93" width="17.37" height="2.25"/><rect class="cls-10" x="342.64" y="312.07" width="17.37" height="2.25"/><rect class="cls-25" x="342.64" y="283.93" width="8.69" height="2.25"/><rect class="cls-25" x="342.64" y="312.07" width="8.69" height="2.25"/><rect class="cls-8" x="236.57" y="297.57" width="31.21" height="40.16"/><rect class="cls-10" x="251.39" y="297.57" width="1.56" height="40.16"/><g class="cls-1"><polygon points="241.11 320.14 239.81 320.14 242.71 312.45 244.01 312.45 241.11 320.14"/><polygon points="244.35 320.14 243.05 320.14 245.96 312.45 247.26 312.45 244.35 320.14"/></g><g class="cls-1"><polygon points="257.2 320.14 255.9 320.14 258.8 312.45 260.1 312.45 257.2 320.14"/><polygon points="260.44 320.14 259.14 320.14 262.04 312.45 263.35 312.45 260.44 320.14"/></g><g><rect class="cls-8" x="212.3" y="280.08" width="7.18" height="57.66"/><rect class="cls-8" x="284.87" y="280.08" width="7.18" height="57.66"/></g><rect class="cls-10" x="208.59" y="330.62" width="10.89" height="7.12"/><rect class="cls-10" x="284.87" y="330.62" width="10.89" height="7.12"/><rect class="cls-10" x="210.49" y="280.08" width="10.75" height="2.99"/><rect class="cls-10" x="283.09" y="280.08" width="10.75" height="2.99"/><rect class="cls-25" x="221.28" y="209.26" width="9.08" height="2.34"/><rect class="cls-25" x="221.28" y="238.56" width="9.08" height="2.34"/><path class="cls-19" d="M164.63,64.19h24.32c3.57,0,6.47,2.9,6.47,6.47v28.43c0,1.45-1.18,2.62-2.62,2.62h-28.17v-37.52h0Z" transform="translate(23.35 -38.46) rotate(13.03)"/><path class="cls-22" d="M194.63,71.13h28.17c1.45,0,2.62,1.18,2.62,2.62v28.43c0,3.57-2.9,6.47-6.47,6.47h-24.32v-37.52h0Z" transform="translate(394.36 224.84) rotate(-166.97)"/><g><path class="cls-8" d="M189.78,79.82s-.08,0-.11-.01l-17.07-3.95c-.27-.06-.44-.33-.38-.6,.06-.27,.34-.44,.6-.37l17.07,3.95c.27,.06,.44,.33,.38,.6-.05,.23-.26,.39-.49,.39Z"/><path class="cls-8" d="M191.12,74.05s-.08,0-.11-.01l-17.06-3.95c-.27-.06-.44-.33-.38-.6,.06-.27,.34-.44,.6-.37l17.06,3.95c.27,.06,.44,.33,.38,.6-.05,.23-.26,.39-.49,.39Z"/><path class="cls-8" d="M187.07,91.55s-.08,0-.11-.01l-17.07-3.95c-.27-.06-.44-.33-.38-.6,.06-.27,.34-.44,.6-.37l17.07,3.95c.27,.06,.44,.33,.38,.6-.05,.23-.26,.39-.49,.39Z"/><path class="cls-8" d="M185.67,97.6s-.08,0-.11-.01l-17.07-3.95c-.27-.06-.44-.33-.38-.6,.06-.27,.34-.44,.6-.37l17.07,3.95c.27,.06,.44,.33,.38,.6-.05,.23-.26,.39-.49,.39Z"/><path class="cls-8" d="M188.4,85.79s-.08,0-.11-.01l-17.06-3.95c-.27-.06-.44-.33-.38-.6,.06-.27,.33-.44,.6-.37l17.06,3.95c.27,.06,.44,.33,.38,.6-.05,.23-.26,.39-.49,.39Z"/><path class="cls-8" d="M220.32,86.65s-.08,0-.11-.01l-17.06-3.95c-.27-.06-.44-.33-.38-.6s.33-.44,.6-.37l17.06,3.95c.27,.06,.44,.33,.38,.6-.05,.23-.26,.39-.49,.39Z"/><path class="cls-8" d="M221.65,80.89s-.08,0-.11-.01l-17.07-3.95c-.27-.06-.44-.33-.38-.6,.06-.27,.34-.44,.6-.37l17.07,3.95c.27,.06,.44,.33,.38,.6-.05,.23-.26,.39-.49,.39Z"/><path class="cls-8" d="M217.6,98.39s-.08,0-.11-.01l-17.07-3.95c-.27-.06-.44-.33-.38-.6,.06-.27,.34-.44,.6-.37l17.07,3.95c.27,.06,.44,.33,.38,.6-.05,.23-.26,.39-.49,.39Z"/><path class="cls-8" d="M216.2,104.44s-.08,0-.11-.01l-17.06-3.95c-.27-.06-.44-.33-.38-.6,.06-.27,.34-.44,.6-.37l17.06,3.95c.27,.06,.44,.33,.38,.6-.05,.23-.26,.39-.49,.39Z"/><path class="cls-8" d="M218.94,92.62s-.08,0-.11-.01l-17.06-3.95c-.27-.06-.44-.33-.38-.6,.06-.27,.34-.44,.6-.37l17.06,3.95c.27,.06,.44,.33,.38,.6-.05,.23-.26,.39-.49,.39Z"/></g><path class="cls-9" d="M425.69,243.79c2.48-8.41,11.27-13.23,19.68-10.77,8.37,2.44,13.22,11.33,10.78,19.7-1.54,5.27-5.53,9.15-10.44,10.69-1.18,.37-2.1,1.28-2.45,2.47l-.2,.66c-.35,1.19-1.61,1.88-2.8,1.53l-9.52-2.81c-1.19-.35-1.88-1.61-1.53-2.8l.19-.66c.35-1.19,.06-2.46-.73-3.41-3.27-3.95-4.54-9.35-2.99-14.59Z"/><path class="cls-12" d="M432.61,276.66h0c2.9,.85,5.94-.8,6.79-3.7l1.4-4.74-10.49-3.09-1.4,4.74c-.85,2.9,.8,5.94,3.7,6.79Z"/><path class="cls-12" d="M450.24,237.88c1.25,1.37,3.79,4.68,4.08,9.3,.04,.56-.36,1.06-.92,1.15h0c-.6,.09-1.16-.32-1.24-.92-.24-1.68-1.05-5.01-3.68-7.96-.42-.48-.36-1.21,.16-1.59l.15-.11c.45-.34,1.08-.28,1.45,.14Z"/><g><path class="cls-9" d="M447.03,229.78c-.22-.07-.34-.31-.27-.53l3.4-11.54c.07-.23,.31-.36,.53-.29,.22,.06,.36,.31,.29,.53l-3.4,11.54c-.07,.23-.31,.36-.53,.29,0,0-.01,0-.02,0Z"/><path class="cls-9" d="M460.24,254.82c-.21-.07-.34-.3-.28-.52,.06-.23,.29-.37,.52-.31l12,3.14c.24,.06,.37,.29,.31,.52-.06,.23-.29,.37-.52,.31l-12-3.14s-.02,0-.03,0Z"/><path class="cls-9" d="M414.53,242.85c-.21-.07-.34-.3-.28-.52,.06-.23,.29-.37,.52-.31l6,1.57c.24,.06,.37,.3,.31,.52-.06,.23-.29,.37-.52,.31l-6-1.57s-.02,0-.03,0Z"/><path class="cls-9" d="M458.09,239.23c-.09-.03-.18-.1-.23-.19-.12-.2-.05-.47,.15-.59l10.7-6.28c.21-.12,.47-.05,.59,.15,.12,.2,.05,.47-.15,.59l-10.7,6.28c-.11,.07-.24,.08-.36,.04Z"/><path class="cls-9" d="M430,231.92c-.09-.03-.18-.1-.23-.19l-6.28-10.7c-.12-.2-.05-.47,.15-.59,.2-.12,.47-.05,.59,.15l6.28,10.7c.12,.2,.05,.47-.15,.59-.11,.07-.24,.08-.36,.04Z"/><path class="cls-9" d="M460.62,246.14c-.14-.05-.26-.17-.29-.33-.04-.23,.12-.46,.35-.5l6.11-1.05c.23-.04,.46,.12,.5,.35,.04,.23-.12,.46-.35,.5l-6.11,1.05c-.07,.01-.14,0-.21-.02Z"/><path class="cls-9" d="M413.15,254.31c-.14-.05-.26-.17-.29-.33-.04-.23,.12-.46,.35-.5l7.01-1.21c.23-.04,.46,.12,.5,.35,.04,.23-.12,.46-.35,.5l-7.01,1.21c-.07,.01-.14,0-.21-.02Z"/><path class="cls-9" d="M436.9,229.39c-.14-.05-.26-.17-.29-.33l-1.06-6.16c-.04-.23,.12-.46,.35-.5,.23-.04,.46,.12,.5,.35l1.06,6.16c.04,.23-.12,.46-.35,.5-.07,.01-.14,0-.21-.02Z"/><path class="cls-9" d="M462.38,265.56c-.05-.02-.1-.04-.14-.08l-5.03-4.37c-.18-.16-.2-.43-.04-.61,.16-.18,.43-.2,.61-.04l5.03,4.37c.18,.16,.2,.43,.04,.61-.12,.14-.3,.18-.46,.12Z"/><path class="cls-9" d="M423.43,238.06s-.07-.03-.1-.05l-10.25-6.99c-.2-.13-.25-.4-.11-.6,.13-.2,.4-.25,.6-.11l10.25,6.99c.2,.13,.25,.4,.11,.6-.11,.16-.31,.23-.49,.17Z"/><path class="cls-9" d="M451.95,232.66s-.07-.03-.1-.05c-.2-.13-.25-.4-.11-.6l4.13-6.06c.13-.2,.4-.25,.6-.11,.2,.13,.25,.4,.11,.6l-4.13,6.06c-.11,.16-.31,.23-.49,.17Z"/></g><g class="cls-1"><g><polygon points="155.36 199.51 154.5 199.51 158.89 190.48 159.76 190.48 155.36 199.51"/><polygon points="158.03 199.51 157.17 199.51 161.56 190.48 162.43 190.48 158.03 199.51"/></g><g><polygon points="187.96 199.51 187.09 199.51 191.49 190.48 192.35 190.48 187.96 199.51"/><polygon points="190.63 199.51 189.76 199.51 194.16 190.48 195.02 190.48 190.63 199.51"/></g><g><polygon points="155.36 228.89 154.5 228.89 158.89 219.85 159.76 219.85 155.36 228.89"/><polygon points="158.03 228.89 157.17 228.89 161.56 219.85 162.43 219.85 158.03 228.89"/></g><g><polygon points="187.96 228.89 187.09 228.89 191.49 219.85 192.35 219.85 187.96 228.89"/><polygon points="190.63 228.89 189.76 228.89 194.16 219.85 195.02 219.85 190.63 228.89"/></g></g><g class="cls-1"><g><polygon points="148.05 280.42 147.19 280.42 151.59 271.38 152.45 271.38 148.05 280.42"/><polygon points="150.72 280.42 149.86 280.42 154.26 271.38 155.12 271.38 150.72 280.42"/></g><g><polygon points="180.65 280.42 179.79 280.42 184.18 271.38 185.05 271.38 180.65 280.42"/><polygon points="183.32 280.42 182.46 280.42 186.85 271.38 187.72 271.38 183.32 280.42"/></g><g><polygon points="148.05 309.79 147.19 309.79 151.59 300.75 152.45 300.75 148.05 309.79"/><polygon points="150.72 309.79 149.86 309.79 154.26 300.75 155.12 300.75 150.72 309.79"/></g><g><polygon points="180.65 309.79 179.79 309.79 184.18 300.75 185.05 300.75 180.65 309.79"/><polygon points="183.32 309.79 182.46 309.79 186.85 300.75 187.72 300.75 183.32 309.79"/></g></g><g class="cls-1"><g><polygon points="316.57 279.93 315.7 279.93 320.1 270.89 320.96 270.89 316.57 279.93"/><polygon points="319.24 279.93 318.37 279.93 322.77 270.89 323.63 270.89 319.24 279.93"/></g><g><polygon points="349.16 279.93 348.3 279.93 352.7 270.89 353.56 270.89 349.16 279.93"/><polygon points="351.83 279.93 350.97 279.93 355.37 270.89 356.23 270.89 351.83 279.93"/></g><g><polygon points="316.57 309.31 315.7 309.31 320.1 300.27 320.96 300.27 316.57 309.31"/><polygon points="319.24 309.31 318.37 309.31 322.77 300.27 323.63 300.27 319.24 309.31"/></g><g><polygon points="349.16 309.31 348.3 309.31 352.7 300.27 353.56 300.27 349.16 309.31"/><polygon points="351.83 309.31 350.97 309.31 355.37 300.27 356.23 300.27 351.83 309.31"/></g></g><g class="cls-1"><g><polygon points="230.93 199.51 230.07 199.51 234.46 190.48 235.33 190.48 230.93 199.51"/><polygon points="233.6 199.51 232.74 199.51 237.13 190.48 238 190.48 233.6 199.51"/></g><g><polygon points="263.53 199.51 262.66 199.51 267.06 190.48 267.92 190.48 263.53 199.51"/><polygon points="266.2 199.51 265.33 199.51 269.73 190.48 270.59 190.48 266.2 199.51"/></g><g><polygon points="230.93 228.89 230.07 228.89 234.46 219.85 235.33 219.85 230.93 228.89"/><polygon points="233.6 228.89 232.74 228.89 237.13 219.85 238 219.85 233.6 228.89"/></g><g><polygon points="263.53 228.89 262.66 228.89 267.06 219.85 267.92 219.85 263.53 228.89"/><polygon points="266.2 228.89 265.33 228.89 269.73 219.85 270.59 219.85 266.2 228.89"/></g></g><g class="cls-1"><g><polygon points="304.6 199.51 303.74 199.51 308.14 190.48 309 190.48 304.6 199.51"/><polygon points="307.27 199.51 306.41 199.51 310.81 190.48 311.67 190.48 307.27 199.51"/></g><g><polygon points="337.2 199.51 336.34 199.51 340.73 190.48 341.6 190.48 337.2 199.51"/><polygon points="339.87 199.51 339.01 199.51 343.4 190.48 344.27 190.48 339.87 199.51"/></g><g><polygon points="304.6 228.89 303.74 228.89 308.14 219.85 309 219.85 304.6 228.89"/><polygon points="307.27 228.89 306.41 228.89 310.81 219.85 311.67 219.85 307.27 228.89"/></g><g><polygon points="337.2 228.89 336.34 228.89 340.73 219.85 341.6 219.85 337.2 228.89"/><polygon points="339.87 228.89 339.01 228.89 343.4 219.85 344.27 219.85 339.87 228.89"/></g></g><rect class="cls-25" x="214.41" y="262.45" width="71.05" height="3.11"/><g><path class="cls-13" d="M329.65,345h0c-.8,0-1.46-.65-1.46-1.46v-18.14h2.91v18.14c0,.8-.65,1.46-1.46,1.46Z"/><rect class="cls-13" x="325.49" y="325.28" width="1.05" height="9.23" transform="translate(-137.78 327.15) rotate(-45)"/><polygon class="cls-13" points="329.65 337.95 330.6 338.4 336.2 326.72 335.26 326.26 329.65 337.95"/><path class="cls-18" d="M323.56,326.12s-4.34,3.44-8.11,1.02c-3.62-2.32-3.85-7.25-.87-9.21,0,0-2.79-4.93,.17-8.29,3.02-3.42,7.11-1.84,7.11-1.84,0,0,1.26-6.05,7.31-5.87,6.05,.19,6.19,5.68,6.19,5.68,0,0,4.89-1.74,7.4,2.93,1.96,3.63-.05,7.12-.05,7.12,0,0,4.73,3.2,1.52,8.29-2.56,4.05-8.26,1.5-8.26,1.5,0,0-1.49,3.54-6.14,3.54-3.46,0-5.49-2.05-6.3-4.88Z"/></g><g><path class="cls-13" d="M167.87,345h0c.96,0,1.74-.78,1.74-1.74v-21.63h-3.47v21.63c0,.96,.78,1.74,1.74,1.74Z"/><rect class="cls-13" x="171.58" y="321.48" width="1.25" height="11.01" transform="translate(62.76 679.96) rotate(-135)"/><polygon class="cls-13" points="167.87 336.59 166.74 337.13 160.06 323.19 161.19 322.65 167.87 336.59"/><path class="cls-18" d="M175.14,322.48s5.17,4.1,9.67,1.22c4.32-2.77,4.59-8.65,1.03-10.98,0,0,3.33-5.88-.21-9.89-3.6-4.08-8.48-2.19-8.48-2.19,0,0-1.5-7.22-8.72-7-7.22,.22-7.39,6.78-7.39,6.78,0,0-5.83-2.08-8.83,3.5-2.33,4.33,.06,8.5,.06,8.5,0,0-5.64,3.81-1.81,9.88,3.05,4.83,9.85,1.78,9.85,1.78,0,0,1.78,4.22,7.32,4.22,4.13,0,6.54-2.44,7.51-5.82Z"/></g><polygon class="cls-3" points="397.97 215.61 394.2 214.62 391.25 217.17 391.02 213.27 387.68 211.25 391.32 209.83 392.21 206.04 394.68 209.05 398.57 208.73 396.46 212.01 397.97 215.61"/><polygon class="cls-9" points="112.15 200.96 109.36 200.27 107.22 202.18 107 199.32 104.52 197.87 107.19 196.78 107.8 193.97 109.65 196.17 112.52 195.88 111 198.33 112.15 200.96"/><polygon class="cls-12" points="116.15 452.84 113.36 452.16 111.21 454.07 111 451.2 108.52 449.75 111.18 448.66 111.79 445.85 113.65 448.05 116.51 447.77 115 450.21 116.15 452.84"/><polygon class="cls-9" points="460.43 133.29 459.03 131.49 456.76 131.62 458.04 129.74 457.21 127.62 459.4 128.25 461.16 126.81 461.23 129.08 463.14 130.31 461.01 131.09 460.43 133.29"/><path class="cls-9" d="M128.87,84.18c0,1.6-1.3,2.9-2.9,2.9s-2.9-1.3-2.9-2.9,1.3-2.9,2.9-2.9,2.9,1.3,2.9,2.9Z"/><path class="cls-12" d="M278.17,127c0,1.14-.93,2.07-2.07,2.07s-2.07-.93-2.07-2.07,.93-2.07,2.07-2.07,2.07,.93,2.07,2.07Z"/><path class="cls-9" d="M459.96,321.55c0,1.6-1.3,2.9-2.9,2.9s-2.9-1.3-2.9-2.9,1.3-2.9,2.9-2.9,2.9,1.3,2.9,2.9Z"/><path class="cls-9" d="M38.54,395.55c0,1.6-1.3,2.9-2.9,2.9s-2.9-1.3-2.9-2.9,1.3-2.9,2.9-2.9,2.9,1.3,2.9,2.9Z"/><path class="cls-9" d="M364.55,74.05c0,1.6-1.3,2.9-2.9,2.9s-2.9-1.3-2.9-2.9,1.3-2.9,2.9-2.9,2.9,1.3,2.9,2.9Z"/><path class="cls-12" d="M366.43,131.79h68.04c1.44,0,2.61,1.17,2.61,2.61v6.51c0,1.44-1.17,2.61-2.61,2.61h-68.04v-11.73h0Z" transform="translate(565.78 529.39) rotate(-131.63)"/><rect class="cls-8" x="387.89" y="117.58" width="2.47" height="11.73" transform="translate(555.38 496.3) rotate(-131.63)"/><rect class="cls-17" x="378.19" y="144.89" width="53.01" height="3.91" transform="translate(563.8 546.88) rotate(-131.63)"/><rect class="cls-20" x="381.11" y="142.3" width="53.01" height="3.91" transform="translate(570.61 544.74) rotate(-131.63)"/><rect class="cls-17" x="384.04" y="139.7" width="53.01" height="3.91" transform="translate(577.42 542.6) rotate(-131.63)"/><polygon class="cls-2" points="420.84 167.96 431.89 171.56 429.61 160.16 420.84 167.96"/><polyline class="cls-4" points="428.94 170.6 431.89 171.56 431.28 168.52"/><path class="cls-9" d="M26.89,361.03H94.93c1.44,0,2.61,1.17,2.61,2.61v6.51c0,1.44-1.17,2.61-2.61,2.61H26.89v-11.73h0Z" transform="translate(-209.37 621.3) rotate(-123.51)"/><rect class="cls-8" x="50.48" y="345.18" width="2.47" height="11.73" transform="translate(-212.44 587.95) rotate(-123.51)"/><rect class="cls-16" x="37.32" y="374.45" width="53.01" height="3.91" transform="translate(-214.81 637.41) rotate(-123.51)"/><rect class="cls-7" x="40.58" y="372.29" width="53.01" height="3.91" transform="translate(-207.94 636.78) rotate(-123.51)"/><rect class="cls-16" x="43.84" y="370.13" width="53.01" height="3.91" transform="translate(-201.08 636.15) rotate(-123.51)"/><polygon class="cls-2" points="76.82 399.59 87.25 404.72 86.6 393.11 76.82 399.59"/><polyline class="cls-4" points="84.47 403.35 87.25 404.72 87.08 401.62"/><path class="cls-12" d="M75.32,128.11l4.48,43.09,49.5-48.69-53.97,5.61Zm8.31,5.75l28.53-2.96-26.12,26.15-2.41-23.19Z"/><g><g><g><rect class="cls-11" x="110.08" y="124.4" width="1" height="2.33" transform="translate(-12.36 12.07) rotate(-5.92)"/><rect class="cls-11" x="114.9" y="123.9" width="1" height="2.33" transform="translate(-12.28 12.56) rotate(-5.92)"/></g><g><rect class="cls-11" x="100.38" y="125.41" width="1" height="2.33" transform="translate(-12.56 11.12) rotate(-5.94)"/><rect class="cls-11" x="105.2" y="124.91" width="1" height="2.33" transform="translate(-12.44 11.57) rotate(-5.92)"/></g><g><rect class="cls-11" x="90.68" y="126.42" width="1" height="2.33" transform="translate(-12.72 10.13) rotate(-5.94)"/><rect class="cls-11" x="95.5" y="125.92" width="1" height="2.33" transform="translate(-12.6 10.58) rotate(-5.92)"/></g><g><rect class="cls-11" x="80.98" y="127.42" width="1" height="2.33" transform="translate(-12.82 9.09) rotate(-5.92)"/><rect class="cls-11" x="85.8" y="126.92" width="1" height="2.33" transform="translate(-12.75 9.58) rotate(-5.92)"/></g></g><g><g><rect class="cls-11" x="76.44" y="138.31" width="2.33" height="1" transform="translate(-13.96 8.78) rotate(-5.94)"/><rect class="cls-11" x="75.94" y="133.5" width="2.33" height="1" transform="translate(-13.46 8.7) rotate(-5.94)"/></g><g><rect class="cls-11" x="77.45" y="148.01" width="2.33" height="1" transform="translate(-14.96 8.94) rotate(-5.94)"/><rect class="cls-11" x="76.95" y="143.2" width="2.33" height="1" transform="translate(-14.46 8.86) rotate(-5.94)"/></g><g><rect class="cls-11" x="78.46" y="157.71" width="2.33" height="1" transform="translate(-15.96 9.1) rotate(-5.94)"/><rect class="cls-11" x="77.96" y="152.9" width="2.33" height="1" transform="translate(-15.46 9.02) rotate(-5.94)"/></g></g></g><path class="cls-22" d="M455.86,386.18l-2.48-.9c-.51-.19-.84-.68-.81-1.23,.03-.44,.04-.88,.04-1.32,0-.32,0-.64-.02-.95-.03-.57,.36-1.07,.91-1.22l2.63-.7c.66-.18,1.05-.85,.87-1.51l-1.55-5.8c-.18-.66-.85-1.05-1.51-.87l-3,.8c-.54,.14-1.09-.1-1.38-.57-.34-.56-.71-1.1-1.1-1.62-.34-.46-.31-1.1,.06-1.54l2.02-2.41c.44-.52,.37-1.3-.15-1.74l-4.59-3.85c-.52-.44-1.31-.37-1.74,.16l-2.15,2.6c-.35,.42-.94,.56-1.44,.34-1.09-.47-2.3-.86-3.32-1.15-.53-.15-.89-.64-.89-1.19v-3.84c0-.68-.55-1.23-1.23-1.23h-6.46c-.68,0-1.23,.55-1.23,1.23v3.87c0,.55-.36,1.03-.89,1.18-.48,.14-1.05,.3-1.59,.48-.52,.17-1.09-.02-1.4-.48l-1.9-2.79c-.39-.57-1.17-.71-1.73-.31l-4.86,3.43c-.56,.39-.69,1.16-.3,1.72l1.86,2.63c.33,.47,.31,1.1-.07,1.53-.43,.48-.83,.98-1.21,1.5-.33,.45-.91,.64-1.43,.45l-2.96-1.08c-.64-.23-1.35,.1-1.58,.74l-2.05,5.64c-.23,.64,.1,1.35,.74,1.58l2.62,.95c.54,.19,.88,.73,.8,1.3-.12,.89-.18,1.8-.18,2.73,0,.13,0,.26,.01,.4l-3.53,.95c-.66,.18-1.05,.85-.87,1.51l1.55,5.8c.18,.66,.85,1.05,1.51,.87l2.24-.6c.55-.15,1.14,.1,1.4,.61,.38,.74,.81,1.46,1.28,2.15,.31,.45,.26,1.05-.09,1.47l-1.44,1.72c-.44,.52-.37,1.3,.15,1.74l4.57,3.83c.53,.45,1.33,.36,1.76-.18l1.12-1.42c.36-.46,1-.61,1.52-.34,1.3,.67,2.65,1.21,4.06,1.58,.53,.14,.89,.64,.89,1.18v2.05c0,.68,.55,1.23,1.23,1.23h6.46c.68,0,1.23-.55,1.23-1.23v-2.06c0-.55,.37-1.04,.9-1.19,.82-.22,1.67-.5,2.49-.82,.53-.21,1.13-.02,1.46,.45l1.1,1.59c.39,.56,1.16,.7,1.72,.31l4.9-3.44c.56-.39,.69-1.16,.3-1.72l-1.26-1.79c-.31-.45-.3-1.05,.04-1.47,.53-.65,1.03-1.34,1.48-2.05,.31-.48,.91-.68,1.45-.48l2.13,.77c.64,.23,1.35-.1,1.58-.74l2.05-5.64c.23-.64-.1-1.35-.74-1.58Zm-23.96,5c-5.15,0-9.32-4.17-9.32-9.32s4.17-9.32,9.32-9.32,9.32,4.17,9.32,9.32-4.17,9.32-9.32,9.32Z"/><path class="cls-9" d="M431.89,367.24c-8.07,0-14.61,6.54-14.61,14.61s6.54,14.61,14.61,14.61,14.61-6.54,14.61-14.61-6.54-14.61-14.61-14.61Zm0,23.94c-5.15,0-9.32-4.17-9.32-9.32s4.17-9.32,9.32-9.32,9.32,4.17,9.32,9.32-4.17,9.32-9.32,9.32Z"/><path class="cls-12" d="M334.75,105.88s-2.04,5.34-21.23,5.34-21.41-5.34-21.41-5.34v-19.08h42.64v19.08Z"/><path class="cls-9" d="M334.75,103.38s-2.04,5.34-21.23,5.34-21.41-5.34-21.41-5.34v-15.46h42.64v15.46Z"/><path class="cls-24" d="M296.88,90.72v18.31s-3.68-1.31-4.77-3.15v-16.21l4.77,1.05Z"/><polygon class="cls-22" points="313.45 98.32 280.64 88.98 313.45 79.64 346.25 88.98 313.45 98.32"/><path class="cls-11" d="M339.8,119.95c-.14,0-.25-.11-.25-.25l-.24-28.59-25.82-2.95c-.14-.02-.24-.14-.22-.28,.02-.14,.13-.24,.28-.22l26.04,2.97c.13,.01,.22,.12,.22,.25l.24,28.81c0,.14-.11,.25-.25,.25h0Z"/><ellipse class="cls-6" cx="339.8" cy="121.54" rx="1.43" ry="2.75"/><path class="cls-6" d="M311.95,87.71c-.08,.61,.62,1.2,1.55,1.32s1.75-.28,1.83-.89c.08-.61-.62-1.2-1.55-1.32-.93-.12-1.75,.28-1.83,.89Z"/><path class="cls-5" d="M80.95,246.5s-.96,5.63-19.78,9.36c-18.64,3.69-22.04-1.07-22.04-1.07l-3.71-18.72,41.83-8.29,3.71,18.72Z"/><path class="cls-22" d="M80.47,244.04s-.96,5.63-19.78,9.36c-18.64,3.69-22.04-1.07-22.04-1.07l-3.01-15.17,41.83-8.29,3.01,15.17Z"/><path class="cls-24" d="M40.86,238.99l3.56,17.96s-3.86-.57-5.29-2.16l-3.15-15.9,4.89,.1Z"/><polygon class="cls-21" points="58.59 243.23 24.6 240.44 54.96 224.9 88.95 227.69 58.59 243.23"/><path class="cls-12" d="M88.65,259.32c-.13,.03-.27-.06-.29-.19l-5.79-28-25.9,2.13c-.14,.01-.26-.09-.27-.23-.01-.14,.08-.26,.23-.27l26.12-2.15c.13-.01,.24,.07,.27,.2l5.84,28.21c.03,.13-.06,.27-.19,.3h0Z"/><path class="cls-9" d="M87.56,261.16c.3,1.49,1.16,2.57,1.93,2.42,.77-.15,1.16-1.48,.87-2.97-.3-1.49-1.16-2.57-1.93-2.42-.77,.15-1.16,1.48-.87,2.97Z"/><path class="cls-9" d="M55.06,233.11c.04,.61,.84,1.05,1.78,.99,.94-.07,1.67-.61,1.62-1.23-.04-.61-.84-1.05-1.78-.99-.94,.07-1.67,.61-1.62,1.23Z"/><polygon class="cls-12" points="39.31 113.55 37.91 111.76 35.64 111.89 36.91 110.01 36.09 107.89 38.27 108.52 40.03 107.08 40.11 109.35 42.02 110.58 39.88 111.35 39.31 113.55"/><path class="cls-12" d="M349.11,437.81c0,1.14-.93,2.07-2.07,2.07s-2.07-.93-2.07-2.07,.93-2.07,2.07-2.07,2.07,.93,2.07,2.07Z"/></g></g></svg>