<?xml version="1.0" encoding="UTF-8"?><svg id="Layer_1" xmlns="http://www.w3.org/2000/svg" viewBox="0 0 20 20"><defs><style>.cls-1{fill:#214080;}</style></defs><path class="cls-1" d="M6.83,6.95l-.9,1.3,1.38,1.51,1.26-.9,.09,.04,.19,1.49h2.16l.25-1.48,.13-.05,1.23,.88,1.52-1.36-.94-1.4,1.51-.24v-2.01l-1.46-.36-.04-.18,.95-1.14-1.57-1.54-1.21,.96-.38-1.58h-2.02l-.33,1.59h-.04s-1.34-.95-1.34-.95l-1.33,1.48,.85,1.15-.06,.19-1.49,.27v2l1.57,.21,.03,.11Zm-.61-1.5l1.26-.23,.39-1.25-.67-.9,.19-.21,1.01,.72,1.08-.32,.29-1.38h.39l.24,1.15,1.01,.66,1.09-.86,.28,.28-.68,.82,.3,1.26,1.29,.32v.34l-1.2,.15-.43,1.09,.75,1.11-.28,.25-1.02-.73-1.16,.45-.2,1.21h-.42l-.15-1.2-1.14-.47-.99,.71-.24-.26,.72-1.04-.36-1.19-1.34-.18v-.3Z"/><path class="cls-1" d="M9.96,7.56c1.06,0,1.93-.86,1.93-1.93s-.86-1.93-1.93-1.93-1.93,.86-1.93,1.93,.86,1.93,1.93,1.93Zm0-2.85c.51,0,.93,.42,.93,.93s-.42,.93-.93,.93-.93-.42-.93-.93,.42-.93,.93-.93Z"/><path class="cls-1" d="M19.56,2.61h-4.71v1h3.71V14.26h-6.96l-.27,.78h-2.69l-.62-.73H1.31V3.61h3.82v-1H.31V15.3H.87l.02,.16c.15,1.14,1.14,2,2.29,2h13.53c1.1,0,2.05-.78,2.27-1.86l.07-.35h.51V2.61Zm-1.56,12.8c-.12,.61-.66,1.06-1.29,1.06H3.18c-.65,0-1.21-.49-1.3-1.14v-.02s5.68,0,5.68,0l.62,.73h3.87l.27-.78h5.71l-.03,.15Z"/><polygon class="cls-1" points="2.62 12.82 2.62 4.91 3.43 4.91 3.43 3.91 1.62 3.91 1.62 13.82 18.28 13.82 18.28 3.91 16.15 3.91 16.15 4.91 17.28 4.91 17.28 12.82 2.62 12.82"/></svg>