<?xml version="1.0" encoding="UTF-8"?><svg id="Layer_1" xmlns="http://www.w3.org/2000/svg" viewBox="0 0 20 20"><defs><style>.cls-1{fill:#214080;}</style></defs><path class="cls-1" d="M3.61,8.67c.22-.14,.68-.41,1.32-.46,.5-.04,.91,.06,1.14,.14,.03,.88,.05,1.8,.06,2.74,0,1.07-.02,2.11-.06,3.12-.24,.07-.69,.17-1.25,.07-.6-.1-1.02-.38-1.21-.54-.24-.17-.78-.58-1.07-1.32-.16-.39-.2-.75-.2-1-.17-.85-.39-2.62,.27-4.68,.55-1.7,1.46-2.85,2.02-3.46,.37-.36,2.42-2.28,5.58-2.18,2.76,.08,4.55,1.66,5,2.07,.64,.71,1.51,1.87,2.07,3.5,1.07,3.1,.33,5.82,0,6.82-.2,.65-.65,1.79-1.65,2.89-.86,.94-1.78,1.47-2.36,1.75-.44,.12-.89,.23-1.35,.34-.67,.16-1.31,.3-1.95,.43-.03-.03-.7-.53-.62-1.36,.07-.77,.71-1.15,.77-1.18h2.25c.06,.08,.17,.26,.22,.51,.04,.25,0,.46-.04,.56,.53-.23,1.35-.68,2.14-1.5,.7-.72,1.1-1.45,1.32-1.95-.15,.11-.56,.39-1.14,.41-.47,.02-.83-.13-1-.21-.03-.97-.04-1.97-.04-2.99,0-1.03,.02-2.04,.04-3.02,.17-.07,.8-.31,1.53-.05,.49,.17,.79,.48,.93,.64,.02-.51-.02-1.22-.24-2.02-.38-1.33-1.09-2.23-1.52-2.7-.37-.34-2.01-1.78-4.54-1.79-2.65-.01-4.35,1.54-4.7,1.87-.37,.35-1.1,1.12-1.48,2.33-.3,.94-.27,1.75-.22,2.23Z"/></svg>